<mxfile host="app.diagrams.net" modified="2024-08-08T13:20:54.387Z" agent="Mozilla/5.0 (Windows NT 10.0; Win64; x64) AppleWebKit/537.36 (KHTML, like Gecko) Chrome/127.0.0.0 Safari/537.36" version="24.4.0" etag="U82Da0Jg2XxCyxmpU1kJ" type="github">
  <diagram name="PÃ¡gina-1" id="MNdaMad9T7mmOKYWeBAi">
    <mxGraphModel>
      <root>
        <mxCell id="0" />
        <mxCell id="1" parent="0" />
      </root>
    </mxGraphModel>
  </diagram>
</mxfile>
